<?xml version="1.0" encoding="UTF-8" standalone="no"?><svg xmlns="http://www.w3.org/2000/svg" xmlns:xlink="http://www.w3.org/1999/xlink" contentScriptType="application/ecmascript" contentStyleType="text/css" height="480px" preserveAspectRatio="none" style="width:775px;height:480px;" version="1.1" viewBox="0 0 775 480" width="775.5px" zoomAndPan="magnify"><defs><filter height="300%" id="f156le7joa3iqg" width="300%" x="-1" y="-1"><feGaussianBlur result="blurOut" stdDeviation="3.0"/><feColorMatrix in="blurOut" result="blurOut2" type="matrix" values="0 0 0 0 0 0 0 0 0 0 0 0 0 0 0 0 0 0 .4 0"/><feOffset dx="6.0" dy="6.0" in="blurOut2" result="blurOut3"/><feBlend in="SourceGraphic" in2="blurOut3" mode="normal"/></filter></defs><g><line style="stroke:#A80036;stroke-width:1.5;stroke-dasharray:5.0,5.0;" x1="202.5" x2="202.5" y1="62.4141" y2="414.1055"/><line style="stroke:#A80036;stroke-width:1.5;stroke-dasharray:5.0,5.0;" x1="300" x2="300" y1="62.4141" y2="414.1055"/><line style="stroke:#A80036;stroke-width:1.5;stroke-dasharray:5.0,5.0;" x1="396" x2="396" y1="62.4141" y2="414.1055"/><line style="stroke:#A80036;stroke-width:1.5;stroke-dasharray:5.0,5.0;" x1="510" x2="510" y1="62.4141" y2="414.1055"/><line style="stroke:#A80036;stroke-width:1.5;stroke-dasharray:5.0,5.0;" x1="619.5" x2="619.5" y1="62.4141" y2="414.1055"/><line style="stroke:#A80036;stroke-width:1.5;stroke-dasharray:5.0,5.0;" x1="720" x2="720" y1="62.4141" y2="414.1055"/><rect fill="#FEFECE" filter="url(#f156le7joa3iqg)" height="47.4141" style="stroke:#A80036;stroke-width:2.25;" width="96" x="151.5" y="7.5"/><text fill="#000000" font-family="sans-serif" font-size="21" lengthAdjust="spacing" textLength="75" x="162" y="39.7998">Feature</text><rect fill="#FEFECE" filter="url(#f156le7joa3iqg)" height="47.4141" style="stroke:#A80036;stroke-width:2.25;" width="96" x="151.5" y="412.6055"/><text fill="#000000" font-family="sans-serif" font-size="21" lengthAdjust="spacing" textLength="75" x="162" y="444.9053">Feature</text><rect fill="#FEFECE" filter="url(#f156le7joa3iqg)" height="47.4141" style="stroke:#A80036;stroke-width:2.25;" width="58.5" x="268.5" y="7.5"/><text fill="#000000" font-family="sans-serif" font-size="21" lengthAdjust="spacing" textLength="37.5" x="279" y="39.7998">Dev</text><rect fill="#FEFECE" filter="url(#f156le7joa3iqg)" height="47.4141" style="stroke:#A80036;stroke-width:2.25;" width="58.5" x="268.5" y="412.6055"/><text fill="#000000" font-family="sans-serif" font-size="21" lengthAdjust="spacing" textLength="37.5" x="279" y="444.9053">Dev</text><rect fill="#FEFECE" filter="url(#f156le7joa3iqg)" height="47.4141" style="stroke:#A80036;stroke-width:2.25;" width="91.5" x="348" y="7.5"/><text fill="#000000" font-family="sans-serif" font-size="21" lengthAdjust="spacing" textLength="70.5" x="358.5" y="39.7998">Testing</text><rect fill="#FEFECE" filter="url(#f156le7joa3iqg)" height="47.4141" style="stroke:#A80036;stroke-width:2.25;" width="91.5" x="348" y="412.6055"/><text fill="#000000" font-family="sans-serif" font-size="21" lengthAdjust="spacing" textLength="70.5" x="358.5" y="444.9053">Testing</text><rect fill="#FEFECE" filter="url(#f156le7joa3iqg)" height="47.4141" style="stroke:#A80036;stroke-width:2.25;" width="93" x="460.5" y="7.5"/><text fill="#000000" font-family="sans-serif" font-size="21" lengthAdjust="spacing" textLength="72" x="471" y="39.7998">Staging</text><rect fill="#FEFECE" filter="url(#f156le7joa3iqg)" height="47.4141" style="stroke:#A80036;stroke-width:2.25;" width="93" x="460.5" y="412.6055"/><text fill="#000000" font-family="sans-serif" font-size="21" lengthAdjust="spacing" textLength="72" x="471" y="444.9053">Staging</text><rect fill="#FEFECE" filter="url(#f156le7joa3iqg)" height="47.4141" style="stroke:#A80036;stroke-width:2.25;" width="85.5" x="574.5" y="7.5"/><text fill="#000000" font-family="sans-serif" font-size="21" lengthAdjust="spacing" textLength="64.5" x="585" y="39.7998">Master</text><rect fill="#FEFECE" filter="url(#f156le7joa3iqg)" height="47.4141" style="stroke:#A80036;stroke-width:2.25;" width="85.5" x="574.5" y="412.6055"/><text fill="#000000" font-family="sans-serif" font-size="21" lengthAdjust="spacing" textLength="64.5" x="585" y="444.9053">Master</text><rect fill="#FEFECE" filter="url(#f156le7joa3iqg)" height="47.4141" style="stroke:#A80036;stroke-width:2.25;" width="73.5" x="681" y="7.5"/><text fill="#000000" font-family="sans-serif" font-size="21" lengthAdjust="spacing" textLength="52.5" x="691.5" y="39.7998">v1.x.x</text><rect fill="#FEFECE" filter="url(#f156le7joa3iqg)" height="47.4141" style="stroke:#A80036;stroke-width:2.25;" width="73.5" x="681" y="412.6055"/><text fill="#000000" font-family="sans-serif" font-size="21" lengthAdjust="spacing" textLength="52.5" x="691.5" y="444.9053">v1.x.x</text><polygon fill="#A80036" points="282.75,112.4414,297.75,118.4414,282.75,124.4414,288.75,118.4414" style="stroke:#A80036;stroke-width:1.5;"/><line style="stroke:#A80036;stroke-width:1.5;" x1="202.5" x2="291.75" y1="118.4414" y2="118.4414"/><text fill="#000000" font-family="sans-serif" font-size="19.5" lengthAdjust="spacing" textLength="51" x="213" y="111.1567">CI/CD</text><path d="M7.5,84.9141 L7.5,123.9141 L189,123.9141 L189,99.9141 L174,84.9141 L7.5,84.9141 " fill="#FBFB77" filter="url(#f156le7joa3iqg)" style="stroke:#A80036;stroke-width:1.5;"/><path d="M174,84.9141 L174,99.9141 L189,99.9141 L174,84.9141 " fill="#FBFB77" style="stroke:#A80036;stroke-width:1.5;"/><text fill="#000000" font-family="sans-serif" font-size="19.5" lengthAdjust="spacing" textLength="150" x="16.5" y="112.6567">this is a first note</text><polygon fill="#A80036" points="378.75,172.9688,393.75,178.9688,378.75,184.9688,384.75,178.9688" style="stroke:#A80036;stroke-width:1.5;"/><line style="stroke:#A80036;stroke-width:1.5;" x1="300.75" x2="387.75" y1="178.9688" y2="178.9688"/><text fill="#000000" font-family="sans-serif" font-size="19.5" lengthAdjust="spacing" textLength="51" x="311.25" y="171.6841">CI/CD</text><path d="M403.5,145.4414 L403.5,184.4414 L601.5,184.4414 L601.5,160.4414 L586.5,145.4414 L403.5,145.4414 " fill="#FBFB77" filter="url(#f156le7joa3iqg)" style="stroke:#A80036;stroke-width:1.5;"/><path d="M586.5,145.4414 L586.5,160.4414 L601.5,160.4414 L586.5,145.4414 " fill="#FBFB77" style="stroke:#A80036;stroke-width:1.5;"/><text fill="#000000" font-family="sans-serif" font-size="19.5" lengthAdjust="spacing" textLength="166.5" x="412.5" y="173.1841">this is another note</text><polygon fill="#A80036" points="492,225.9961,507,231.9961,492,237.9961,498,231.9961" style="stroke:#A80036;stroke-width:1.5;"/><line style="stroke:#A80036;stroke-width:1.5;" x1="396.75" x2="501" y1="231.9961" y2="231.9961"/><text fill="#000000" font-family="sans-serif" font-size="19.5" lengthAdjust="spacing" textLength="51" x="407.25" y="224.7114">CI/CD</text><polygon fill="#A80036" points="602.25,271.5234,617.25,277.5234,602.25,283.5234,608.25,277.5234" style="stroke:#A80036;stroke-width:1.5;"/><line style="stroke:#A80036;stroke-width:1.5;" x1="510" x2="611.25" y1="277.5234" y2="277.5234"/><text fill="#000000" font-family="sans-serif" font-size="19.5" lengthAdjust="spacing" textLength="63" x="520.5" y="270.2388">Manual</text><polygon fill="#A80036" points="702.75,349.0781,717.75,355.0781,702.75,361.0781,708.75,355.0781" style="stroke:#A80036;stroke-width:1.5;"/><line style="stroke:#A80036;stroke-width:1.5;" x1="620.25" x2="711.75" y1="355.0781" y2="355.0781"/><text fill="#000000" font-family="sans-serif" font-size="19.5" lengthAdjust="spacing" textLength="63" x="630.75" y="347.7935">Manual</text><path d="M406.5,297.0234 L406.5,385.5234 L606,385.5234 L606,312.0234 L591,297.0234 L406.5,297.0234 " fill="#FBFB77" filter="url(#f156le7joa3iqg)" style="stroke:#A80036;stroke-width:1.5;"/><path d="M591,297.0234 L591,312.0234 L606,312.0234 L591,297.0234 " fill="#FBFB77" style="stroke:#A80036;stroke-width:1.5;"/><text fill="#000000" font-family="sans-serif" font-size="19.5" lengthAdjust="spacing" textLength="54" x="415.5" y="324.7661">a note</text><text fill="#000000" font-family="sans-serif" font-size="19.5" lengthAdjust="spacing" textLength="168" x="415.5" y="349.2935">can also be defined</text><text fill="#000000" font-family="sans-serif" font-size="19.5" lengthAdjust="spacing" textLength="133.5" x="415.5" y="373.8208">on several lines</text><!--MD5=[2e507e1fd635dd1034b8a3945ad6c0ab]
@startuml
scale 1.5

Feature -> Dev: CI/CD
note left: this is a first note
Dev -> Testing: CI/CD
note right: this is another note
Testing -> Staging: CI/CD
Staging -> Master: Manual
Master -> v1.x.x: Manual
note left
a note
can also be defined
on several lines
end note

@enduml

PlantUML version 1.2021.00(Sun Jan 10 15:55:05 IST 2021)
(GPL source distribution)
Java Runtime: OpenJDK Runtime Environment
JVM: OpenJDK 64-Bit Server VM
Default Encoding: Cp1252
Language: en
Country: IN
--></g></svg>